<svg xmlns="http://www.w3.org/2000/svg" viewBox="0 0 720 500"><defs><style>.cls-1{fill:#fff;}</style></defs><g id="Lager_2" data-name="Lager 2"><g id="Lager_1-2" data-name="Lager 1"><rect width="720" height="500"/><path d="M477.86,341.41l-262.09,8.1a13.84,13.84,0,0,1-14.2-15.21q8.2-82.12,16.42-164.25a13.86,13.86,0,0,1,10.89-12.16l250-53.25a13.84,13.84,0,0,1,16.72,13.82q-2.19,104.7-4.37,209.4A13.84,13.84,0,0,1,477.86,341.41Z"/><path class="cls-1" d="M215.34,352.52A16.85,16.85,0,0,1,198.58,334L215,169.76A16.79,16.79,0,0,1,228.26,155l250-53.25a16.83,16.83,0,0,1,20.34,16.82l-4.36,209.39A16.83,16.83,0,0,1,478,344.41l-262.1,8.1ZM481.82,107.33a11,11,0,0,0-2.28.24l-250,53.26a10.81,10.81,0,0,0-8.53,9.52L204.56,334.6a10.83,10.83,0,0,0,11.12,11.91l262.09-8.1a10.84,10.84,0,0,0,10.5-10.61l4.37-209.4a10.85,10.85,0,0,0-10.82-11.07Z"/><path d="M396,347c9,37,1,35,1,35l-31,3H288s38-1,46-7,4.65-28.48,4.65-28.48Z"/><path class="cls-1" d="M366.17,388H288l-.08-6c14.32-.38,39-2.45,44.28-6.4C337,372,336.88,358,335.68,350l-.49-3.29,63.14-2.78.59,2.4c6.83,28.11,4.24,34.73,1.7,37.25A4.86,4.86,0,0,1,397,385Zm-33.28-6h33l30.67-3c.6-1.17,2.28-6.82-2.89-28.92L342,352.38c.67,7,1.21,22.45-6.21,28A13.77,13.77,0,0,1,332.89,382Z"/></g></g></svg>