<svg width="857" height="643" viewBox="0 0 857 643" fill="none" xmlns="http://www.w3.org/2000/svg">
<rect width="857" height="643" fill="#D7E0E2"/>
<path d="M340.888 256V223.984H342.712V256H340.888ZM340.888 312V279.984H342.712V310.272H358.6V312H340.888ZM366.474 311.232C364.874 310.304 363.53 309.072 362.442 307.536C361.386 305.968 360.586 304.192 360.042 302.208C359.53 300.192 359.274 298.112 359.274 295.968C359.274 293.76 359.562 291.648 360.138 289.632C360.714 287.616 361.546 285.856 362.634 284.352C363.754 282.816 365.098 281.6 366.666 280.704C368.266 279.808 370.09 279.36 372.138 279.36C374.282 279.36 376.154 279.84 377.754 280.8C379.354 281.728 380.682 282.976 381.738 284.544C382.794 286.08 383.578 287.856 384.09 289.872C384.602 291.856 384.858 293.888 384.858 295.968C384.858 298.048 384.602 300.096 384.09 302.112C383.578 304.096 382.794 305.872 381.738 307.44C380.682 308.976 379.354 310.224 377.754 311.184C376.154 312.144 374.282 312.624 372.138 312.624C369.994 312.624 368.106 312.16 366.474 311.232ZM363.834 306.192C364.762 307.6 365.914 308.752 367.29 309.648C368.666 310.544 370.282 310.992 372.138 310.992C373.994 310.992 375.594 310.544 376.938 309.648C378.314 308.752 379.45 307.584 380.346 306.144C381.242 304.704 381.898 303.088 382.314 301.296C382.762 299.504 382.986 297.728 382.986 295.968C382.986 294.208 382.762 292.448 382.314 290.688C381.898 288.896 381.242 287.28 380.346 285.84C379.482 284.4 378.362 283.232 376.986 282.336C375.61 281.44 373.994 280.992 372.138 280.992C370.218 280.992 368.57 281.44 367.194 282.336C365.818 283.232 364.682 284.4 363.786 285.84C362.89 287.248 362.218 288.848 361.77 290.64C361.354 292.432 361.146 294.208 361.146 295.968C361.146 297.76 361.37 299.552 361.818 301.344C362.266 303.136 362.938 304.752 363.834 306.192ZM398.326 312L386.23 279.984H388.102L398.95 308.832L409.606 279.984H411.526L399.526 312H398.326ZM415.888 312V279.984H433.36V281.712H417.712V294H429.136V295.728H417.664V310.272H434.176V312H415.888ZM340.888 368V335.984H342.712V352.496L358.936 335.984H361.144L348.904 348.608L362.296 368H360.136L347.608 349.952L342.712 354.752V368H340.888ZM366.201 368V335.984H368.025V368H366.201ZM375.81 368V335.984H378.402L389.25 364.304L399.666 335.984H402.114V368H400.338V338.864L389.538 368.528H389.058L377.586 338.912V368H375.81ZM431.2 362.432C430.176 364.384 428.864 365.904 427.264 366.992C425.696 368.08 423.664 368.624 421.168 368.624C419.024 368.624 417.152 368.192 415.552 367.328C413.952 366.432 412.608 365.248 411.52 363.776C410.464 362.272 409.664 360.528 409.12 358.544C408.608 356.528 408.352 354.384 408.352 352.112C408.352 349.584 408.656 347.296 409.264 345.248C409.872 343.2 410.704 341.44 411.76 339.968C412.848 338.496 414.144 337.36 415.648 336.56C417.184 335.76 418.864 335.36 420.688 335.36C422.064 335.36 423.28 335.52 424.336 335.84C425.424 336.16 426.368 336.608 427.168 337.184C428 337.76 428.72 338.448 429.328 339.248C429.936 340.016 430.464 340.848 430.912 341.744L429.328 342.56C428.944 341.792 428.496 341.072 427.984 340.4C427.472 339.728 426.864 339.152 426.16 338.672C425.488 338.16 424.704 337.76 423.808 337.472C422.912 337.152 421.888 336.992 420.736 336.992C419.328 336.992 417.984 337.328 416.704 338C415.424 338.64 414.304 339.6 413.344 340.88C412.384 342.16 411.616 343.744 411.04 345.632C410.496 347.52 410.224 349.696 410.224 352.16C410.224 354.24 410.464 356.192 410.944 358.016C411.456 359.808 412.176 361.376 413.104 362.72C414.064 364.032 415.216 365.072 416.56 365.84C417.936 366.608 419.472 366.992 421.168 366.992C422.256 366.992 423.232 366.848 424.096 366.56C424.992 366.272 425.776 365.888 426.448 365.408C427.152 364.896 427.776 364.32 428.32 363.68C428.864 363.008 429.328 362.304 429.712 361.568L431.2 362.432ZM436.044 368V335.984H437.868V350.528H456.252V335.984H458.076V368H456.252V352.256H437.868V368H436.044ZM465.857 368V335.984H467.681V368H465.857Z" fill="black"/>
</svg>
