<svg xmlns="http://www.w3.org/2000/svg" viewBox="0 0 390.63 22.6"><g id="Lager_2" data-name="Lager 2"><g id="Lager_1-2" data-name="Lager 1"><path d="M9.15,22.6,2.73,3.66V22.6H0V0H4l6.7,19.69L17.27,0h4V22.6H18.54V3.66L12.19,22.6Z"/><path d="M55.74,12.31V22.6H52.86V0h2.88V9.77H67.37V0h2.88V22.6H67.37V12.31Z"/><path d="M107.14,22.6,100.72,3.66V22.6H98V0h4l6.7,19.69L115.26,0h4V22.6h-2.73V3.66L110.18,22.6Z"/><path d="M147.59,0h8.71c5.74,0,9.21,4.28,9.21,11.29S162,22.6,156.3,22.6h-8.71Zm8.22,20.06c4.46,0,6.82-3,6.82-8.74s-2.36-8.78-6.82-8.78h-5.34V20.06Z"/><path d="M214,20.06h13.34V22.6H211.14V0H226.8V2.54H214V9.77h12.31v2.54H214Z"/><path d="M253.64,15.16h-7.38V12.93h7.38Z"/><path d="M286,12.31V22.6h-2.88V0H286V9.77H297.6V0h2.88V22.6H297.6V12.31Z"/><path d="M331.7,12.31V22.6h-2.89V0h2.89V9.77h11.63V0h2.88V22.6h-2.88V12.31Z"/><path d="M373.76,0h9.18a6.88,6.88,0,0,1,4.9,1.58,5.4,5.4,0,0,1,1.8,4.16,5.05,5.05,0,0,1-3.13,4.93c2.88,1.11,4.12,2.76,4.12,5.48a6.55,6.55,0,0,1-1.74,4.56A6.27,6.27,0,0,1,384,22.6h-10.2Zm8.47,9.74a5,5,0,0,0,3.29-.81,3.34,3.34,0,0,0,1.24-2.79,3.34,3.34,0,0,0-1.24-2.79,5,5,0,0,0-3.29-.81h-5.58v7.2Zm1.46,10.32c2.54,0,4.06-1.46,4.06-3.87s-1.52-3.91-4.06-3.91h-7v7.78Z"/></g></g></svg>