<svg xmlns="http://www.w3.org/2000/svg" viewBox="0 0 394.74 24.52"><defs><style>.cls-1{fill:none;}</style></defs><g id="Lager_2" data-name="Lager 2"><g id="Lager_1-2" data-name="Lager 1"><path d="M3.3.5l7.82,20.65L19.24.5h3.3V24.06H20.29V3.7h-.06l-8,20.36H10.06L2.31,3.7H2.24V24.06H0V.5Z"/><path class="cls-1" d="M26.6,7.62a11.58,11.58,0,0,1,2.08-3.91A10,10,0,0,1,32.16,1,11.15,11.15,0,0,1,37,0a11.06,11.06,0,0,1,4.85,1,10.06,10.06,0,0,1,3.46,2.7,11.58,11.58,0,0,1,2.08,3.91,15.59,15.59,0,0,1,.69,4.66,15.53,15.53,0,0,1-.69,4.65,11.3,11.3,0,0,1-2.08,3.89,10.16,10.16,0,0,1-3.46,2.69,11.06,11.06,0,0,1-4.85,1,11.15,11.15,0,0,1-4.87-1,10,10,0,0,1-3.48-2.69,11.3,11.3,0,0,1-2.08-3.89,15.83,15.83,0,0,1,0-9.31Zm2.06,8.43a10.2,10.2,0,0,0,1.58,3.34A8.11,8.11,0,0,0,33,21.75a8.53,8.53,0,0,0,4,.89,8.48,8.48,0,0,0,4-.89,8,8,0,0,0,2.73-2.36,10,10,0,0,0,1.59-3.34,14.3,14.3,0,0,0,0-7.57,10.1,10.1,0,0,0-1.59-3.32A8,8,0,0,0,41,2.81a8.36,8.36,0,0,0-4-.9,8.42,8.42,0,0,0-4,.9,8.09,8.09,0,0,0-2.76,2.35,10.29,10.29,0,0,0-1.58,3.32,14.3,14.3,0,0,0,0,7.57Z"/><path d="M53.86.5V10.73h14V.5h2.24V24.06H67.85V12.64h-14V24.06H51.61V.5Z"/><path class="cls-1" d="M84.25.5l9.24,23.56H91.08l-2.87-7.33H77.48l-2.83,7.33H72.27L81.74.5Zm3.2,14.32L82.9,2.74,78.18,14.82Z"/><path d="M98.87.5l7.82,20.65L114.81.5h3.3V24.06h-2.25V3.7h-.06l-8.06,20.36h-2.11L97.88,3.7h-.07V24.06H95.57V.5Z"/><path class="cls-1" d="M139,.5V2.41H125v8.51H138.1v1.92H125v9.3h14.19v1.92H122.73V.5Z"/><path d="M150.45.5c3.58.08,6.28,1.09,8.1,3s2.72,4.85,2.72,8.77-.91,6.83-2.72,8.76-4.52,2.93-8.1,3h-8.16V.5Zm-1.13,21.64a15.6,15.6,0,0,0,4.38-.54,7,7,0,0,0,3-1.73,7.17,7.17,0,0,0,1.74-3.07,15.74,15.74,0,0,0,.57-4.52,15.69,15.69,0,0,0-.57-4.52,7.05,7.05,0,0,0-1.74-3.07,7.06,7.06,0,0,0-3-1.74,15.6,15.6,0,0,0-4.38-.54h-4.78V22.14Z"/><path d="M227,.5V2.41H213v8.51h13.14v1.92H213v9.3H227.2v1.92H210.77V.5Z"/><path class="cls-1" d="M232.58.5V22.14h13.2v1.92H230.34V.5Z"/><path d="M247.66,14h8.25v1.92h-8.25Z"/><path class="cls-1" d="M276.52,5.2a6.48,6.48,0,0,0-1.65-1.8,7.64,7.64,0,0,0-2.14-1.11,8.11,8.11,0,0,0-2.46-.38,8.42,8.42,0,0,0-4,.9,8.09,8.09,0,0,0-2.76,2.35,10.29,10.29,0,0,0-1.58,3.32,14.3,14.3,0,0,0,0,7.57,10.2,10.2,0,0,0,1.58,3.34,8.11,8.11,0,0,0,2.76,2.36,8.53,8.53,0,0,0,4,.89,7.1,7.1,0,0,0,3-.6,7,7,0,0,0,2.27-1.61,8.06,8.06,0,0,0,1.55-2.4,9.78,9.78,0,0,0,.76-3h2.25A12.89,12.89,0,0,1,279,19a9.74,9.74,0,0,1-2,3,8.75,8.75,0,0,1-3,1.88,10.32,10.32,0,0,1-3.77.66,11.15,11.15,0,0,1-4.87-1,10,10,0,0,1-3.48-2.69,11.3,11.3,0,0,1-2.08-3.89,15.53,15.53,0,0,1-.69-4.65,15.59,15.59,0,0,1,.69-4.66,11.58,11.58,0,0,1,2.08-3.91A10,10,0,0,1,265.4,1,11.72,11.72,0,0,1,273.55.5,9.42,9.42,0,0,1,276.45,2a8.49,8.49,0,0,1,2.18,2.4,8.14,8.14,0,0,1,1.11,3.26h-2.25A7.32,7.32,0,0,0,276.52,5.2Z"/><path d="M285.74.5V10.73h14V.5H302V24.06h-2.25V12.64h-14V24.06H283.5V.5Z"/><path class="cls-1" d="M323,.5V2.41H309v8.51h13.14v1.92H309v9.3h14.19v1.92H306.73V.5Z"/><path d="M328.54.5V10.73h14V.5h2.25V24.06h-2.25V12.64h-14V24.06H326.3V.5Z"/><path class="cls-1" d="M358.94.5l9.24,23.56h-2.41l-2.87-7.33H352.17l-2.84,7.33H347L356.43.5Zm3.2,14.32L357.58,2.74l-4.72,12.08Z"/><path d="M380.29.5a13.92,13.92,0,0,1,2.85.28,6.8,6.8,0,0,1,2.41,1,5.18,5.18,0,0,1,1.67,1.78,5.63,5.63,0,0,1,.62,2.76,5.75,5.75,0,0,1-.29,1.8,5.35,5.35,0,0,1-.85,1.58,5.25,5.25,0,0,1-1.28,1.21,4.76,4.76,0,0,1-1.67.69v.07a5.53,5.53,0,0,1,3.63,1.86,5.75,5.75,0,0,1,1.35,3.88,10.21,10.21,0,0,1-.09,1.27,6.3,6.3,0,0,1-.4,1.45,6.19,6.19,0,0,1-.86,1.47,5,5,0,0,1-1.5,1.27,9.21,9.21,0,0,1-2.31.89,13.56,13.56,0,0,1-3.28.35h-10V.5Zm0,10.32a7.76,7.76,0,0,0,2.34-.31,4.77,4.77,0,0,0,1.65-.86,3.46,3.46,0,0,0,1-1.27,3.69,3.69,0,0,0,.33-1.55q0-4.43-5.31-4.42h-7.73v8.41Zm0,11.32a12.9,12.9,0,0,0,2.37-.21,5.27,5.27,0,0,0,2-.78,3.92,3.92,0,0,0,1.35-1.5,5,5,0,0,0,.5-2.36,3.9,3.9,0,0,0-1.6-3.41,7.87,7.87,0,0,0-4.6-1.14h-7.73v9.4Z"/><path class="cls-1" d="M394.74.5V24.06H392.5V.5Z"/></g></g></svg>