<svg xmlns="http://www.w3.org/2000/svg" viewBox="0 0 720 500"><defs><style>.cls-1{fill:#fff;}</style></defs><g id="Lager_2" data-name="Lager 2"><g id="Lager_1-2" data-name="Lager 1"><rect width="720" height="500"/><polygon points="546.72 154.85 629.91 234.88 349.36 372.16 291.08 263.2 546.72 154.85"/><path class="cls-1" d="M349.14,372.82,290.38,263l.5-.21,256-108.48.23.23L630.77,235ZM291.78,263.44,349.57,371.5,629.05,234.74l-82.44-79.3Z"/><polygon points="422.15 112.82 503.5 194.72 219.89 325.58 164.11 215.32 422.15 112.82"/><path class="cls-1" d="M219.66,326.23,163.41,215.06,422.27,112.23l82.08,82.64ZM164.8,215.58l55.32,109.34L502.64,194.56,422,113.41Z"/><polygon points="311.5 76.5 388.5 162.5 98.5 278.5 48.5 165.5 311.5 76.5"/><path class="cls-1" d="M98.24,279.14l-.2-.44L47.82,165.2l.52-.17L311.65,75.92l77.7,86.78ZM49.18,165.8,98.76,277.86,387.65,162.3l-76.3-85.22Z"/></g></g></svg>