<svg xmlns="http://www.w3.org/2000/svg" viewBox="0 0 720 500"><defs><style>.cls-1{fill:#fff;}</style></defs><g id="Lager_2" data-name="Lager 2"><g id="Lager_1-2" data-name="Lager 1"><rect width="720" height="500"/><rect x="294.5" y="217.5" width="14" height="118"/><path class="cls-1" d="M309,336H294V217h15Zm-14-1h13V218H295Z"/><path class="cls-1" d="M308,336.54V216.69l7,3.5-1,111.55Zm1-118.23V334.46l4-3.2,1-110.45Z"/><path d="M336.5,321.5h-11v-85h12Q337,279,336.5,321.5Z"/><path class="cls-1" d="M337,322H325V236h13Zm-11-1h10l1-84H326Z"/><path d="M339.5,319.5l-3,2q.5-42.49,1-85l3,2Q340,279,339.5,319.5Z"/><path class="cls-1" d="M336,322.44l1-86.87,4,2.66-1,81.54Zm2-85-1,83.13,2-1.33,1-80.46Z"/><path d="M642.5,202.5l-440,3q.5-13.5,1-27l438-6Q642,187.5,642.5,202.5Z"/><path class="cls-1" d="M202,206l1-28h.47L642,172l1,31h-.52Zm2-27-1,26,439-3-1-29Z"/><path d="M641.5,203.5l-100,38-254,1-55.14-24-29.86-13Z"/><path class="cls-1" d="M287.4,243l-87.28-38,444.14-2L541.5,242Zm-82.52-37,82.72,36,253.81-1,97.33-37Z"/><polygon points="232.36 218.5 76.5 218.5 49.5 193.5 202.5 194.5 202.5 205.5 232.36 218.5"/><path class="cls-1" d="M234.76,219H76.3L48.21,193,203,194v11.17ZM76.7,218H230l-28-12.17V195L50.79,194Z"/><polyline points="76.5 218.5 140.93 232.23 263.9 232.23 232.36 218.5"/><polygon class="cls-1" points="266.3 232.73 140.83 232.72 76.4 218.99 76.6 218.01 140.98 231.73 261.5 231.73 232.16 218.96 232.56 218.04 266.3 232.73"/><polygon points="501.5 233.5 501.5 326.5 492.5 326.5 489.5 233.5 501.5 233.5"/><path class="cls-1" d="M502,327H492l-3-94h13Zm-9-1h8V234H490Z"/><path d="M489.5,234.5l3,92-4-2q-1-42.49-2-85Z"/><path class="cls-1" d="M493,327.33l-5-2.52-2-85.44,3.94-6.59Zm-4-3.14,3,1.49-2.91-89.47L487,239.63Z"/><path d="M521.5,337.5l-5-1-3-117,5-3Z"/><path class="cls-1" d="M522,338.11l-6-1.2v-.4l-3-117.29,6-3.59Zm-5-2,4,.8-3-119.52-4,2.41Z"/><path d="M521.5,337.5h16q-1-60.49-2-121h-17Z"/><path class="cls-1" d="M538,338H521v-.49L518,216h18Zm-16-1h15l-2-120H519Z"/><polygon points="48.64 331.34 49.5 194.5 76.5 218.5 78.5 331.34 48.64 331.34"/><path class="cls-1" d="M79,331.84H48.14v-.51L49,193.39l28,24.88Zm-29.86-1H78L76,218.73,50,195.61Z"/><path d="M382.43,335.5s.07,3,4.07,3h77.72s4.28,1,4.28-13-5-15-5-15a23.64,23.64,0,0,0-8.65-12.79,23,23,0,0,0-10.35-4.21,26.15,26.15,0,0,0-20,6h-29s-10,0-15,8S382.43,335.5,382.43,335.5Z"/><path class="cls-1" d="M464.4,339l-.23,0H386.5c-4,0-4.51-2.84-4.57-3.4-.49-1.43-6.84-20.4-1.85-28.36,5.08-8.15,15-8.24,15.42-8.24h28.82a26.66,26.66,0,0,1,20.24-6,23.67,23.67,0,0,1,10.59,4.31,24.09,24.09,0,0,1,8.76,12.8c1.16.47,5.09,3,5.09,15.39,0,8.68-1.66,11.82-3.05,12.92A2.53,2.53,0,0,1,464.4,339Zm-81.47-3.53c0,.11.14,2.51,3.57,2.51h77.83a1.39,1.39,0,0,0,1.05-.42c1-.82,2.62-3.48,2.62-12.09,0-13.28-4.56-14.5-4.61-14.51l-.29-.07-.08-.29a23.05,23.05,0,0,0-8.47-12.52A22.57,22.57,0,0,0,444.43,294a25.53,25.53,0,0,0-19.61,5.88l-.14.12H395.5c-.1,0-9.79.1-14.58,7.76s1.91,27.38,2,27.58Z"/><ellipse class="cls-1" cx="391" cy="326" rx="4.5" ry="5.5"/><path class="cls-1" d="M391,332c-2.76,0-5-2.69-5-6s2.24-6,5-6,5,2.69,5,6S393.76,332,391,332Zm0-11c-2.21,0-4,2.24-4,5s1.79,5,4,5,4-2.24,4-5S393.21,321,391,321Z"/><ellipse class="cls-1" cx="460" cy="326" rx="4.5" ry="5.5"/><path class="cls-1" d="M460,332c-2.76,0-5-2.69-5-6s2.24-6,5-6,5,2.69,5,6S462.76,332,460,332Zm0-11c-2.21,0-4,2.24-4,5s1.79,5,4,5,4-2.24,4-5S462.21,321,460,321Z"/><circle cx="475.5" cy="276.5" r="4"/><path class="cls-1" d="M475.5,281a4.5,4.5,0,1,1,4.5-4.5A4.51,4.51,0,0,1,475.5,281Zm0-8a3.5,3.5,0,1,0,3.5,3.5A3.5,3.5,0,0,0,475.5,273Z"/><line x1="479.5" y1="335.5" x2="485.5" y2="333.5"/><rect class="cls-1" x="479.34" y="334" width="6.32" height="1" transform="translate(-81.02 169.75) rotate(-18.43)"/><polygon class="cls-1" points="491.45 334.66 490.5 334.34 491.96 329.93 478 303.35 478 317.42 482.98 333.35 482.02 333.65 477 317.5 477 299.3 493.04 329.84 491.45 334.66"/><rect class="cls-1" x="476" y="280.45" width="1" height="21.1" transform="translate(-25.44 46.49) rotate(-5.44)"/><polygon class="cls-1" points="471 302.11 469.98 283.08 475.42 282.15 475.58 283.13 471.02 283.92 472 302.05 471 302.11"/><polygon class="cls-1" points="486.7 303.03 485.7 303.03 485.7 291.07 483.14 282.06 476.12 283.13 475.97 282.15 483.86 280.94 486.7 291 486.7 303.03"/></g></g></svg>