<svg xmlns="http://www.w3.org/2000/svg" viewBox="0 0 857 643"><defs><style>.cls-1{fill:#fff;}</style></defs><g id="Lager_2" data-name="Lager 2"><g id="Lager_1-2" data-name="Lager 1"><rect width="857" height="643"/><path class="cls-1" d="M340.89,256V224h1.82v32Zm0,56V280h1.82v30.29H358.6V312Zm25.58-.77a12.79,12.79,0,0,1-4-3.69,18.35,18.35,0,0,1-2.4-5.33,25.39,25.39,0,0,1-.77-6.24,22.84,22.84,0,0,1,.87-6.34,17,17,0,0,1,2.49-5.28,13,13,0,0,1,4-3.65,11.05,11.05,0,0,1,5.47-1.34,10.69,10.69,0,0,1,5.61,1.44,12.18,12.18,0,0,1,4,3.74,16.66,16.66,0,0,1,2.35,5.33,24.46,24.46,0,0,1,.77,6.1,24.89,24.89,0,0,1-.77,6.14,17.16,17.16,0,0,1-2.35,5.33,12.73,12.73,0,0,1-4,3.74,10.69,10.69,0,0,1-5.61,1.44A11.27,11.27,0,0,1,366.47,311.23Zm-2.64-5a11.88,11.88,0,0,0,3.46,3.46,8.74,8.74,0,0,0,4.85,1.34,8.52,8.52,0,0,0,4.8-1.34,11.32,11.32,0,0,0,3.41-3.51,15.87,15.87,0,0,0,2-4.84A21.89,21.89,0,0,0,383,296a21.25,21.25,0,0,0-.68-5.28,15.93,15.93,0,0,0-2-4.85,10.72,10.72,0,0,0-3.36-3.5,8.69,8.69,0,0,0-4.85-1.35,8.86,8.86,0,0,0-4.95,1.35,11,11,0,0,0-3.4,3.5,16.18,16.18,0,0,0-2,4.8,23.27,23.27,0,0,0-.62,5.33,21.94,21.94,0,0,0,.67,5.37A17,17,0,0,0,363.83,306.19Zm34.5,5.81-12.1-32h1.87L399,308.83,409.61,280h1.92l-12,32Zm17.56,0V280h17.47v1.73H417.71V294h11.43v1.73H417.66v14.54h16.52V312Zm-75,56V336h1.82V352.5L358.94,336h2.2L348.9,348.61,362.3,368h-2.16L347.61,350l-4.9,4.8V368Zm25.31,0V336H368v32Zm9.61,0V336h2.59l10.85,28.32L399.67,336h2.44v32h-1.77V338.86l-10.8,29.67h-.48l-11.47-29.62V368Zm55.39-5.57a12.27,12.27,0,0,1-3.94,4.56,10.43,10.43,0,0,1-6.09,1.63,11.69,11.69,0,0,1-5.62-1.29,12.71,12.71,0,0,1-4-3.55,16.57,16.57,0,0,1-2.4-5.24,26.11,26.11,0,0,1-.77-6.43,24.34,24.34,0,0,1,.91-6.86,17.46,17.46,0,0,1,2.5-5.28,11.57,11.57,0,0,1,3.89-3.41,10.71,10.71,0,0,1,5-1.2,12.66,12.66,0,0,1,3.65.48,9.51,9.51,0,0,1,2.83,1.34,9.65,9.65,0,0,1,2.16,2.07,14.58,14.58,0,0,1,1.58,2.49l-1.58.82A13.28,13.28,0,0,0,428,340.4a9,9,0,0,0-4.17-2.93,9.12,9.12,0,0,0-3.07-.48,8.61,8.61,0,0,0-4,1,9.53,9.53,0,0,0-3.36,2.88,15.34,15.34,0,0,0-2.3,4.75,23.83,23.83,0,0,0-.82,6.53,23,23,0,0,0,.72,5.86,16.26,16.26,0,0,0,2.16,4.7,11.16,11.16,0,0,0,3.46,3.12,10,10,0,0,0,7.54.72,8.58,8.58,0,0,0,2.35-1.15,10.64,10.64,0,0,0,1.87-1.73,12.8,12.8,0,0,0,1.39-2.11ZM436,368V336h1.83v14.55h18.38V336h1.83v32h-1.83V352.26H437.87V368Zm29.82,0V336h1.82v32Z"/></g></g></svg>