<svg xmlns="http://www.w3.org/2000/svg" viewBox="0 0 721 500.7"><defs><style>.cls-1{fill:#fff;}</style></defs><g id="Lager_2" data-name="Lager 2"><g id="Lager_1-2" data-name="Lager 1"><polygon points="610 500.7 721 500.7 721 0 610 0 458.5 0 0 0 0 500.7 458.5 500.7 610 500.7"/><rect x="285.5" y="99.35" width="151.5" height="299.5" rx="25.45"/><path class="cls-1" d="M411.55,401.84H311a28.47,28.47,0,0,1-28.44-28.44V124.8A28.47,28.47,0,0,1,311,96.36h100.6A28.47,28.47,0,0,1,440,124.8V373.4A28.47,28.47,0,0,1,411.55,401.84ZM311,102.34a22.49,22.49,0,0,0-22.46,22.46V373.4A22.49,22.49,0,0,0,311,395.86h100.6A22.49,22.49,0,0,0,434,373.4V124.8a22.49,22.49,0,0,0-22.46-22.46Z"/><path d="M610,500.7V289.8a25.46,25.46,0,0,0-25.45-25.45H484A25.46,25.46,0,0,0,458.5,289.8V500.7"/><path class="cls-1" d="M613,500.7h-6V289.8a22.49,22.49,0,0,0-22.46-22.46H484a22.49,22.49,0,0,0-22.46,22.46V500.7h-6V289.8A28.47,28.47,0,0,1,484,261.36h100.6A28.47,28.47,0,0,1,613,289.8Z"/><path d="M610,0V211.4a25.46,25.46,0,0,1-25.45,25.45H484A25.46,25.46,0,0,1,458.5,211.4V0"/><path class="cls-1" d="M584.55,239.84H484a28.47,28.47,0,0,1-28.44-28.44V0h6V211.4A22.49,22.49,0,0,0,484,233.86h100.6A22.49,22.49,0,0,0,607,211.4V0h6V211.4A28.47,28.47,0,0,1,584.55,239.84Z"/></g></g></svg>